sh_-0.1_80rpm
version=1
nRows=9
nColumns=49
inDegrees=yes
endheader
time	/jointset/bb/crank_angle/value	/jointset/bb/crank_angle/speed	/jointset/spindle/pedal_angle_r/value	/jointset/spindle/pedal_angle_r/speed	/jointset/ground_pelvis/pelvis_tilt/value	/jointset/ground_pelvis/pelvis_tilt/speed	/jointset/ground_pelvis/pelvis_list/value	/jointset/ground_pelvis/pelvis_list/speed	/jointset/ground_pelvis/pelvis_rotation/value	/jointset/ground_pelvis/pelvis_rotation/speed	/jointset/ground_pelvis/pelvis_tx/value	/jointset/ground_pelvis/pelvis_tx/speed	/jointset/ground_pelvis/pelvis_ty/value	/jointset/ground_pelvis/pelvis_ty/speed	/jointset/ground_pelvis/pelvis_tz/value	/jointset/ground_pelvis/pelvis_tz/speed	/jointset/hip_r/hip_angle_r/value	/jointset/hip_r/hip_angle_r/speed	/jointset/hip_r/hip_adduction_r/value	/jointset/hip_r/hip_adduction_r/speed	/jointset/hip_r/hip_rotation_r/value	/jointset/hip_r/hip_rotation_r/speed	/jointset/knee_r/knee_angle_r/value	/jointset/knee_r/knee_angle_r/speed	/jointset/knee_r/tib_tx_r/value	/jointset/knee_r/tib_tx_r/speed	/jointset/knee_r/tib_ty_r/value	/jointset/knee_r/tib_ty_r/speed	/jointset/tib_pat_r/pat_angle_r/value	/jointset/tib_pat_r/pat_angle_r/speed	/jointset/tib_pat_r/pat_tx_r/value	/jointset/tib_pat_r/pat_tx_r/speed	/jointset/tib_pat_r/pat_ty_r/value	/jointset/tib_pat_r/pat_ty_r/speed	/jointset/ankle_r/ankle_angle_r/value	/jointset/ankle_r/ankle_angle_r/speed	/jointset/subtalar_r/subtalar_angle_r/value	/jointset/subtalar_r/subtalar_angle_r/speed	/jointset/mtp_r/mtp_angle_r/value	/jointset/mtp_r/mtp_angle_r/speed	/forceset/bifemlh_r/activation	/forceset/bifemlh_r/fiber_length	/forceset/bifemsh_r/activation	/forceset/bifemsh_r/fiber_length	/forceset/glut_max2_r/activation	/forceset/glut_max2_r/fiber_length	/forceset/vas_int_r/activation	/forceset/vas_int_r/fiber_length
      1.11522046	   -535.30581852	   -480.00000000	    538.74727115	    334.11966417	     -0.00000000	     -0.00000000	      0.00000000	     -0.00000000	      0.00000000	      0.00000000	     -0.10000000	      0.00000000	     -0.10000000	      0.00000000	     -0.00000000	     -0.00000000	     46.80238124	    -29.43419349	      4.38344289	     -0.09068129	      0.37292212	     -8.81396725	    -64.70090038	   -112.00420649	      0.00505452	      0.00400938	     -0.47742766	     -0.03551579	     17.47323167	      1.38307962	      0.04139788	     -0.03431594	     -0.02275603	      0.00381531	     21.76958436	     -4.18563712	     -0.00000000	      0.00000000	      0.00000000	      0.00000000	      0.05000000	      0.10000000	      0.05000000	      0.10000000	      0.05000000	      0.10000000	      0.05000000	      0.10000000
      1.14462651	   -549.42072346	   -480.00000000	    548.19718897	    311.50208026	     -0.00000000	      0.00000000	      0.00000000	     -0.00000000	      0.00000000	      0.00000000	     -0.10000000	     -0.00000000	     -0.10000000	     -0.00000000	     -0.00000000	      0.00000000	     46.51967653	      8.81026315	      4.37802675	     -0.30171887	      0.04098705	    -13.45902393	    -68.96738229	   -174.69553838	      0.00514654	      0.00129354	     -0.47879966	     -0.05691263	     17.51353787	      1.19909305	      0.04006923	     -0.05531187	     -0.02262263	      0.00486705	     21.66444606	     -2.13967906	     -0.00000000	      0.00000000	      0.00000000	      0.00000000	      0.05000000	      0.10000000	      0.05000000	      0.10000000	      0.05000000	      0.10000000	      0.05000000	      0.10000000
      1.18468794	   -568.65021328	   -480.00000000	    560.49854683	    307.31284982	     -0.00000000	     -0.00000000	      0.00000000	     -0.00000000	      0.00000000	     -0.00000000	     -0.10000000	     -0.00000000	     -0.10000000	      0.00000000	     -0.00000000	     -0.00000000	     47.70704089	     48.39515391	      4.35673260	     -0.79229679	     -0.58235669	    -17.27239925	    -77.14355719	   -227.78664777	      0.00498493	     -0.01067464	     -0.48151798	     -0.07704674	     17.54266059	      0.30776664	      0.03739042	     -0.07728862	     -0.02247608	      0.00131897	     21.75051617	      7.50313438	     -0.00000000	     -0.00000000	      0.00000000	      0.00000000	      0.05000000	      0.10000000	      0.05000000	      0.10000000	      0.05000000	      0.10000000	      0.05000000	      0.10000000
      1.20733128	   -579.51901519	   -480.00000000	    567.54492785	    316.28234012	     -0.00000000	      0.00000000	      0.00000000	      0.00000000	      0.00000000	      0.00000000	     -0.10000000	      0.00000000	     -0.10000000	     -0.00000000	     -0.00000000	      0.00000000	     49.00962429	     66.26322599	      4.33503520	     -1.12742705	     -0.98950560	    -18.62231286	    -82.50325162	   -244.20245556	      0.00463867	     -0.02015654	     -0.48334586	     -0.08387214	     17.54851387	      0.31777951	      0.03552692	     -0.08701234	     -0.02250071	     -0.00359871	     22.00545618	     15.21177596	     -0.00000000	     -0.00000000	      0.00000000	      0.00000000	      0.05000000	      0.10000000	      0.05000000	      0.10000000	      0.05000000	      0.10000000	      0.05000000	      0.10000000
      1.23512531	   -592.86014961	   -480.00000000	    576.59552622	    336.60193326	     -0.00000000	      0.00000000	      0.00000000	     -0.00000000	     -0.00000000	      0.00000000	     -0.10000000	      0.00000000	     -0.10000000	     -0.00000000	      0.00000000	      0.00000000	     51.12685565	     85.73820272	      4.29789263	     -1.54195881	     -1.52506541	    -19.85228269	    -89.44956753	   -253.84847881	      0.00389833	     -0.03328625	     -0.48574519	     -0.08801645	     17.56491255	      0.83225647	      0.03296964	     -0.09656014	     -0.02267938	     -0.00902248	     22.57480472	     25.93788366	      0.00000000	     -0.00000000	     -0.00000000	      0.00000000	      0.05000000	      0.10000000	      0.05000000	      0.10000000	      0.05000000	      0.10000000	      0.05000000	      0.10000000
      1.26044789	   -605.01498484	   -480.00000000	    585.44001692	    363.16964313	     -0.00000000	      0.00000000	     -0.00000000	     -0.00000000	      0.00000000	     -0.00000000	     -0.10000000	      0.00000000	     -0.10000000	     -0.00000000	     -0.00000000	     -0.00000000	     53.50840016	    102.22331970	      4.25448011	     -1.87536045	     -2.03897549	    -20.69609642	    -95.89563051	   -253.95745611	      0.00290040	     -0.04544191	     -0.48798049	     -0.08793337	     17.58933363	      1.04956067	      0.03044033	     -0.10277500	     -0.02295437	     -0.01252456	     23.36267376	     36.33749035	     -0.00000000	     -0.00000000	     -0.00000000	     -0.00000000	      0.05000000	      0.10000000	      0.05000000	      0.10000000	      0.05000000	      0.10000000	      0.05000000	      0.10000000
      1.31382101	   -630.63408553	   -480.00000000	    606.78494224	    441.18035771	      0.00000000	     -0.00000000	     -0.00000000	      0.00000000	      0.00000000	     -0.00000000	     -0.10000000	      0.00000000	     -0.10000000	     -0.00000000	      0.00000000	      0.00000000	     59.85115885	    135.02552608	      4.14283185	     -2.19105553	     -3.17093609	    -21.39531363	   -108.93320214	   -228.77915080	     -0.00010181	     -0.06477049	     -0.49243613	     -0.07662881	     17.63901102	      0.64197128	      0.02481425	     -0.10515971	     -0.02374821	     -0.01628734	     25.87000113	     56.71638157	     -0.00000000	     -0.00000000	      0.00000000	     -0.00000000	      0.05000000	      0.10000000	      0.05000000	      0.10000000	      0.05000000	      0.10000000	      0.05000000	      0.10000000
      1.34050757	   -643.44363588	   -480.00000000	    619.17988828	    488.26249911	     -0.00000000	      0.00000000	      0.00000000	     -0.00000000	     -0.00000000	      0.00000000	     -0.10000000	      0.00000000	     -0.10000000	      0.00000000	      0.00000000	     -0.00000000	     63.65633818	    149.83893201	      4.08598406	     -2.02806813	     -3.73440834	    -20.65136520	   -114.71007402	   -202.56191088	     -0.00187781	     -0.06725750	     -0.49434513	     -0.06593625	     17.65013349	      0.18464887	      0.02208210	     -0.09854424	     -0.02418088	     -0.01586908	     27.47568430	     62.82446503	      0.00000000	     -0.00000000	      0.00000000	      0.00000000	      0.05000000	      0.10000000	      0.05000000	      0.10000000	      0.05000000	      0.10000000	      0.05000000	      0.10000000
      1.38136937	   -663.05729588	   -480.00000000	    640.62418088	    559.96477653	     -0.00000000	      0.00000000	      0.00000000	      0.00000000	     -0.00000000	     -0.00000000	     -0.10000000	     -0.00000000	     -0.10000000	      0.00000000	     -0.00000000	      0.00000000	     70.14963720	    165.95212832	      4.01571265	     -1.32790330	     -4.51099138	    -16.64715314	   -121.85438396	   -143.08102044	     -0.00445750	     -0.05412667	     -0.49662209	     -0.04499719	     17.64844568	     -0.12165793	      0.01849046	     -0.07331447	     -0.02476445	     -0.01195000	     30.02920913	     58.69115034	     -0.00000000	     -0.00000000	     -0.00000000	     -0.00000000	      0.05000000	      0.10000000	      0.05000000	      0.10000000	      0.05000000	      0.10000000	      0.05000000	      0.10000000
